<?xml version="1.0" encoding="UTF-8" standalone="no"?>
<svg
   xmlns:dc="http://purl.org/dc/elements/1.1/"
   xmlns:cc="http://creativecommons.org/ns#"
   xmlns:rdf="http://www.w3.org/1999/02/22-rdf-syntax-ns#"
   xmlns:svg="http://www.w3.org/2000/svg"
   xmlns="http://www.w3.org/2000/svg"
   viewBox="0 0 412 200"
   height="200"
   width="412"
   xml:space="preserve"
   id="svg2"
   version="1.1"><metadata
     id="metadata8"><rdf:RDF><cc:Work
         rdf:about=""><dc:format>image/svg+xml</dc:format><dc:type
           rdf:resource="http://purl.org/dc/dcmitype/StillImage" /></cc:Work></rdf:RDF></metadata><defs
     id="defs6" /><g
     transform="matrix(1.3333333,0,0,-1.3333333,0,200)"
     id="g10"><g
       transform="scale(0.1)"
       id="g12"><path
         id="path14"
         style="fill:#333333;fill-opacity:1;fill-rule:evenodd;stroke:none"
         d="m 1545,1500 -288.98,-268.52 92.5,-85.5 196.48,182.5 782.5,-726.492 h 184.49 L 1545,1500" /><path
         id="path16"
         style="fill:#2e7fc2;fill-opacity:1;fill-rule:evenodd;stroke:none"
         d="M 966.988,1500 0,601.988 h 184.488 l 782.5,726.492 782.502,-726.492 h 184.49 L 966.988,1500" /><path
         id="path18"
         style="fill:#237db5;fill-opacity:1;fill-rule:evenodd;stroke:none"
         d="M 978.98,806.48 H 1168 V 986.988 H 978.98 Z" /><path
         id="path20"
         style="fill:#2e82c2;fill-opacity:1;fill-rule:evenodd;stroke:none"
         d="M 978.98,601.48 H 1168 V 781.988 H 978.98 Z" /><path
         id="path22"
         style="fill:#237fb3;fill-opacity:1;fill-rule:evenodd;stroke:none"
         d="M 766.02,806.48 H 955 V 986.988 H 766.02 Z" /><path
         id="path24"
         style="fill:#237fb5;fill-opacity:1;fill-rule:evenodd;stroke:none"
         d="M 766.02,601.48 H 955 V 781.988 H 766.02 Z" /><path
         id="path26"
         style="fill:#666666;fill-opacity:1;fill-rule:evenodd;stroke:none"
         d="m 2122.5,1500 -288.98,-268.52 92.5,-85.5 196.48,182.5 782.5,-726.492 h 184.49 L 2122.5,1500" /><path
         id="path28"
         style="fill:#317abd;fill-opacity:1;fill-rule:nonzero;stroke:none"
         d="M 718.238,121.801 C 716.25,83.6719 705.512,54.4883 686.051,34.3008 666.68,14.1797 639.219,4.14063 603.711,4.14063 c -35.621,0 -63.981,13.51957 -85,40.62887 -20.941,27.0703 -31.41,63.7815 -31.41,110.1525 v 64.527 c 0,46.25 10.789,82.742 32.347,109.531 21.563,26.879 50.973,40.321 88.282,40.321 34.261,0 60.781,-10.321 79.531,-30.942 18.828,-20.55 29.098,-49.918 30.777,-88.129 H 673.09 c -2,28.95 -8.129,49.571 -18.442,61.879 -10.238,12.379 -25.777,18.59 -46.718,18.59 -24.301,0 -42.93,-9.488 -55.942,-28.429 -13.039,-18.989 -19.527,-46.719 -19.527,-83.29 v -65.152 c 0,-36.058 6.019,-63.6678 18.129,-82.8085 12.18,-19.1797 29.879,-28.75 53.121,-28.75 23.32,0 40.078,5.6993 50.309,17.1797 10.199,11.5703 16.57,32.3516 19.07,62.3518 z M 819.102,8.98047 H 775.82 V 383.98 h 43.282 z" /><path
         id="path30"
         style="fill:#317abd;fill-opacity:1;fill-rule:nonzero;stroke:none"
         d="M 1021.48,32.1094 C 1007.11,13.4414 986.172,4.14063 958.672,4.14063 c -23.871,0 -41.953,8.19917 -54.223,24.68747 C 892.27,45.3906 886.09,69.4492 886.02,101.02 v 172.179 h 42.96 V 104.141 c 0,-41.1722 12.348,-61.7191 37.04,-61.7191 26.25,0 44.29,11.7187 54.21,35.1562 V 273.199 h 43.29 V 8.98047 h -41.1 z" /><path
         id="path32"
         style="fill:#317abd;fill-opacity:1;fill-rule:nonzero;stroke:none"
         d="m 1320.23,128.359 c 0,-41.1676 -7.42,-72.1481 -22.18,-92.9684 -14.81,-20.8593 -36.25,-31.24997 -64.38,-31.24997 -28.05,0 -49.06,12.03127 -63.12,36.08987 l -2.19,-31.25003 h -39.22 V 383.98 h 42.97 V 244.141 c 14.14,22.578 34.45,33.91 60.94,33.91 29.06,0 50.82,-10.281 65.31,-30.781 14.45,-20.551 21.76,-51.489 21.87,-92.821 z m -42.96,24.692 c 0,31.25 -4.38,53.469 -13.13,66.719 -8.67,13.32 -22.73,20 -42.19,20 -22.3,0 -38.9,-12.11 -49.84,-36.25 V 77.8906 c 10.7,-23.75 27.5,-35.6211 50.31,-35.6211 19.46,0 33.44,6.7891 41.88,20.461 8.51,13.6406 12.85,34.8906 12.97,63.7495 z" /><path
         id="path34"
         style="fill:#317abd;fill-opacity:1;fill-rule:nonzero;stroke:none"
         d="m 1498.28,8.98047 h 44.6875 v 355.469 H 1498.28 Z" /><path
         id="path36"
         style="fill:#317abd;fill-opacity:1;fill-rule:nonzero;stroke:none"
         d="m 1678.91,364.449 92.81,-289.9998 92.81,289.9998 h 57.5 V 8.98047 h -44.69 V 147.422 l 4.22,138.598 -92.97,-277.03953 h -34.21 l -92.5,276.10153 4.06,-137.66 V 8.98047 h -44.69 V 364.449 Z" /><path
         id="path38"
         style="fill:#317abd;fill-opacity:1;fill-rule:nonzero;stroke:none"
         d="m 2056.84,364.449 92.81,-289.9998 92.81,289.9998 h 57.5 V 8.98047 h -44.69 V 147.422 l 4.22,138.598 -92.97,-277.03953 h -34.22 l -92.5,276.10153 4.07,-137.66 V 8.98047 h -44.69 V 364.449 Z" /><path
         id="path40"
         style="fill:#317abd;fill-opacity:1;fill-rule:nonzero;stroke:none"
         d="m 2608.36,155.551 c 0,-48.563 -10.39,-85.9416 -31.09,-112.1916 -20.63,-26.168 -49.97,-39.21877 -87.97,-39.21877 -36.68,0 -65.63,12.69917 -86.88,38.12887 -21.25,25.5 -32.3,61.5585 -33.12,108.1215 v 66.879 c 0,47.5 10.47,84.679 31.4,111.562 21.02,26.949 50.35,40.469 87.97,40.469 37.5,0 66.64,-12.93 87.5,-38.75 20.94,-25.75 31.64,-62.5 32.19,-110.321 z m -44.69,62.179 c 0,37.579 -6.17,65.508 -18.44,83.75 -12.3,18.321 -31.17,27.5 -56.56,27.5 -24.61,0 -43.2,-9.289 -55.78,-27.808 -12.62,-18.551 -18.98,-45.902 -19.06,-82.031 v -63.59 c 0,-36.371 6.29,-64.0705 18.9,-83.1291 12.58,-19.0625 31.41,-28.5938 56.41,-28.5938 25.08,0 43.63,8.793 55.63,26.4024 12.07,17.5781 18.35,44.5395 18.9,80.7895 z" /></g></g></svg>